<?xml version="1.0" encoding="UTF-8"?>
<svg width="150px" height="60px" viewBox="0 0 150 60" version="1.1" xmlns="http://www.w3.org/2000/svg" xmlns:xlink="http://www.w3.org/1999/xlink">
    <title>Group 27</title>
    <g id="temp" stroke="none" stroke-width="1" fill="none" fill-rule="evenodd">
        <g id="Group-27" transform="translate(0.000000, -0.000000)">
            <path d="M0.783,59.036 C0.873,59.036 0.9345,59.0195 0.9675,58.9865 C1.0005,58.9535 1.017,58.886 1.017,58.784 L1.017,58.784 L1.017,53.627 C1.467,54.479 1.848,55.1975 2.16,55.7825 C2.472,56.3675 2.73,56.8535 2.934,57.2405 C3.138,57.6275 3.297,57.9275 3.411,58.1405 C3.525,58.3535 3.609,58.5125 3.663,58.6175 C3.717,58.7225 3.75,58.7885 3.762,58.8155 C3.774,58.8425 3.783,58.859 3.789,58.865 C3.819,58.913 3.8475,58.9475 3.8745,58.9685 C3.9015,58.9895 3.948,59 4.014,59 L4.014,59 L4.284,59 C4.374,59 4.437,58.982 4.473,58.946 C4.509,58.91 4.527,58.844 4.527,58.748 L4.527,58.748 L4.527,53.213 C4.527,53.117 4.509,53.051 4.473,53.015 C4.437,52.979 4.374,52.961 4.284,52.961 C4.194,52.961 4.1325,52.9775 4.0995,53.0105 C4.0665,53.0435 4.05,53.111 4.05,53.213 L4.05,53.213 L4.05,58.37 L1.305,53.141 C1.275,53.087 1.2465,53.0495 1.2195,53.0285 C1.1925,53.0075 1.146,52.997 1.08,52.997 L1.08,52.997 L0.783,52.997 C0.693,52.997 0.63,53.015 0.594,53.051 C0.558,53.087 0.54,53.153 0.54,53.249 L0.54,53.249 L0.54,58.784 C0.54,58.88 0.558,58.946 0.594,58.982 C0.63,59.018 0.693,59.036 0.783,59.036 Z M10.214,59 C10.364,59 10.439,58.916 10.439,58.748 C10.439,58.598 10.364,58.523 10.214,58.523 L10.214,58.523 L7.424,58.523 L7.424,56.048 L9.818,56.048 C9.89,56.048 9.944,56.0315 9.98,55.9985 C10.016,55.9655 10.034,55.904 10.034,55.814 C10.034,55.658 9.962,55.58 9.818,55.58 L9.818,55.58 L7.424,55.58 L7.424,53.474 L10.214,53.474 C10.364,53.474 10.439,53.399 10.439,53.249 C10.439,53.081 10.364,52.997 10.214,52.997 L10.214,52.997 L7.19,52.997 C7.1,52.997 7.037,53.015 7.001,53.051 C6.965,53.087 6.947,53.153 6.947,53.249 L6.947,53.249 L6.947,58.748 C6.947,58.844 6.965,58.91 7.001,58.946 C7.037,58.982 7.1,59 7.19,59 L7.19,59 L10.214,59 Z M16.9,59.045 C16.99,59.045 17.053,59.027 17.089,58.991 C17.125,58.955 17.143,58.889 17.143,58.793 L17.143,58.793 L17.143,53.294 C17.143,53.096 17.056,52.997 16.882,52.997 L16.882,52.997 L16.558,52.997 C16.492,52.997 16.444,53.0075 16.414,53.0285 C16.384,53.0495 16.354,53.087 16.324,53.141 L16.324,53.141 L14.803,56.543 L13.282,53.141 C13.252,53.087 13.222,53.0495 13.192,53.0285 C13.162,53.0075 13.114,52.997 13.048,52.997 L13.048,52.997 L12.706,52.997 C12.616,52.997 12.553,53.018 12.517,53.06 C12.481,53.102 12.463,53.189 12.463,53.321 L12.463,53.321 L12.463,58.793 C12.463,58.889 12.481,58.955 12.517,58.991 C12.553,59.027 12.616,59.045 12.706,59.045 C12.796,59.045 12.8575,59.0285 12.8905,58.9955 C12.9235,58.9625 12.94,58.895 12.94,58.793 L12.94,58.793 L12.94,53.492 L14.371,56.651 C14.407,56.723 14.4445,56.78 14.4835,56.822 C14.5225,56.864 14.578,56.885 14.65,56.885 L14.65,56.885 L14.947,56.885 C15.019,56.885 15.0745,56.864 15.1135,56.822 C15.1525,56.78 15.19,56.723 15.226,56.651 L15.226,56.651 L16.666,53.492 L16.666,58.793 C16.666,58.895 16.6825,58.9625 16.7155,58.9955 C16.7485,59.0285 16.81,59.045 16.9,59.045 Z M22.812,59 C22.944,59 23.01,58.916 23.01,58.748 C23.01,58.598 22.944,58.523 22.812,58.523 L22.812,58.523 L19.806,58.523 L22.866,53.537 C22.896,53.483 22.9215,53.4305 22.9425,53.3795 C22.9635,53.3285 22.974,53.27 22.974,53.204 C22.974,53.156 22.9545,53.1095 22.9155,53.0645 C22.8765,53.0195 22.827,52.997 22.767,52.997 L22.767,52.997 L19.473,52.997 C19.323,52.997 19.248,53.081 19.248,53.249 C19.248,53.399 19.323,53.474 19.473,53.474 L19.473,53.474 L22.362,53.474 L19.302,58.469 C19.278,58.511 19.2555,58.559 19.2345,58.613 C19.2135,58.667 19.203,58.724 19.203,58.784 C19.203,58.832 19.224,58.88 19.266,58.928 C19.308,58.976 19.374,59 19.464,59 L19.464,59 L22.812,59 Z M28.319,59 C28.469,59 28.544,58.916 28.544,58.748 C28.544,58.598 28.469,58.523 28.319,58.523 L28.319,58.523 L25.529,58.523 L25.529,56.048 L27.923,56.048 C27.995,56.048 28.049,56.0315 28.085,55.9985 C28.121,55.9655 28.139,55.904 28.139,55.814 C28.139,55.658 28.067,55.58 27.923,55.58 L27.923,55.58 L25.529,55.58 L25.529,53.474 L28.319,53.474 C28.469,53.474 28.544,53.399 28.544,53.249 C28.544,53.081 28.469,52.997 28.319,52.997 L28.319,52.997 L25.295,52.997 C25.205,52.997 25.142,53.015 25.106,53.051 C25.07,53.087 25.052,53.153 25.052,53.249 L25.052,53.249 L25.052,58.748 C25.052,58.844 25.07,58.91 25.106,58.946 C25.142,58.982 25.205,59 25.295,59 L25.295,59 L28.319,59 Z M32.116,59.045 C32.212,59.045 32.2765,59.027 32.3095,58.991 C32.3425,58.955 32.359,58.889 32.359,58.793 L32.359,58.793 L32.359,53.474 L33.934,53.474 C34.084,53.474 34.159,53.399 34.159,53.249 C34.159,53.081 34.084,52.997 33.934,52.997 L33.934,52.997 L30.307,52.997 C30.157,52.997 30.082,53.081 30.082,53.249 C30.082,53.399 30.157,53.474 30.307,53.474 L30.307,53.474 L31.882,53.474 L31.882,58.793 C31.882,58.895 31.8985,58.9625 31.9315,58.9955 C31.9645,59.0285 32.026,59.045 32.116,59.045 Z M36.615,59.045 C36.705,59.045 36.7665,59.0285 36.7995,58.9955 C36.8325,58.9625 36.849,58.895 36.849,58.793 L36.849,58.793 L36.849,53.213 C36.849,53.111 36.8325,53.0435 36.7995,53.0105 C36.7665,52.9775 36.705,52.961 36.615,52.961 C36.525,52.961 36.462,52.979 36.426,53.015 C36.39,53.051 36.372,53.117 36.372,53.213 L36.372,53.213 L36.372,58.793 C36.372,58.889 36.39,58.955 36.426,58.991 C36.462,59.027 36.525,59.045 36.615,59.045 Z M43.363,59.036 C43.453,59.036 43.516,58.985 43.552,58.883 L43.552,58.883 L43.975,57.596 L46.531,57.596 L46.963,58.883 C46.981,58.931 47.0125,58.967 47.0575,58.991 C47.1025,59.015 47.149,59.027 47.197,59.027 C47.299,59.027 47.3695,59.0015 47.4085,58.9505 C47.4475,58.8995 47.467,58.856 47.467,58.82 C47.467,58.802 47.461,58.769 47.449,58.721 L47.449,58.721 L45.667,53.258 C45.631,53.15 45.5965,53.0795 45.5635,53.0465 C45.5305,53.0135 45.475,52.997 45.397,52.997 L45.397,52.997 L45.136,52.997 C45.052,52.997 44.9935,53.0135 44.9605,53.0465 C44.9275,53.0795 44.893,53.15 44.857,53.258 L44.857,53.258 L43.075,58.721 C43.069,58.739 43.0645,58.7555 43.0615,58.7705 C43.0585,58.7855 43.057,58.802 43.057,58.82 C43.057,58.862 43.0795,58.9085 43.1245,58.9595 C43.1695,59.0105 43.249,59.036 43.363,59.036 Z M46.378,57.11 L44.146,57.11 L45.253,53.546 L46.378,57.11 Z M49.77,59.045 C49.86,59.045 49.9215,59.0285 49.9545,58.9955 C49.9875,58.9625 50.004,58.895 50.004,58.793 L50.004,58.793 L50.004,56.597 L50.796,55.805 L52.902,58.919 C52.926,58.949 52.9545,58.976 52.9875,59 C53.0205,59.024 53.058,59.036 53.1,59.036 C53.136,59.036 53.19,59.018 53.262,58.982 C53.334,58.946 53.37,58.886 53.37,58.802 C53.37,58.742 53.352,58.694 53.316,58.658 L53.316,58.658 L51.138,55.49 L53.298,53.357 C53.34,53.315 53.361,53.264 53.361,53.204 C53.361,53.138 53.334,53.0825 53.28,53.0375 C53.226,52.9925 53.175,52.97 53.127,52.97 C53.061,52.97 52.992,53.006 52.92,53.078 L52.92,53.078 L50.004,55.931 L50.004,53.213 C50.004,53.111 49.9875,53.0435 49.9545,53.0105 C49.9215,52.9775 49.86,52.961 49.77,52.961 C49.68,52.961 49.617,52.979 49.581,53.015 C49.545,53.051 49.527,53.117 49.527,53.213 L49.527,53.213 L49.527,58.793 C49.527,58.889 49.545,58.955 49.581,58.991 C49.617,59.027 49.68,59.045 49.77,59.045 Z M55.583,59.045 C55.673,59.045 55.7345,59.0285 55.7675,58.9955 C55.8005,58.9625 55.817,58.895 55.817,58.793 L55.817,58.793 L55.817,56.597 L56.609,55.805 L58.715,58.919 C58.739,58.949 58.7675,58.976 58.8005,59 C58.8335,59.024 58.871,59.036 58.913,59.036 C58.949,59.036 59.003,59.018 59.075,58.982 C59.147,58.946 59.183,58.886 59.183,58.802 C59.183,58.742 59.165,58.694 59.129,58.658 L59.129,58.658 L56.951,55.49 L59.111,53.357 C59.153,53.315 59.174,53.264 59.174,53.204 C59.174,53.138 59.147,53.0825 59.093,53.0375 C59.039,52.9925 58.988,52.97 58.94,52.97 C58.874,52.97 58.805,53.006 58.733,53.078 L58.733,53.078 L55.817,55.931 L55.817,53.213 C55.817,53.111 55.8005,53.0435 55.7675,53.0105 C55.7345,52.9775 55.673,52.961 55.583,52.961 C55.493,52.961 55.43,52.979 55.394,53.015 C55.358,53.051 55.34,53.117 55.34,53.213 L55.34,53.213 L55.34,58.793 C55.34,58.889 55.358,58.955 55.394,58.991 C55.43,59.027 55.493,59.045 55.583,59.045 Z M61.378,59.045 C61.468,59.045 61.5325,59.0285 61.5715,58.9955 C61.6105,58.9625 61.63,58.895 61.63,58.793 L61.63,58.793 L61.63,56.525 L63.169,56.525 L64.411,58.892 C64.465,58.988 64.534,59.036 64.618,59.036 C64.684,59.036 64.747,59.0135 64.807,58.9685 C64.867,58.9235 64.897,58.868 64.897,58.802 C64.897,58.754 64.882,58.706 64.852,58.658 L64.852,58.658 L63.7,56.507 C64.12,56.441 64.4425,56.2535 64.6675,55.9445 C64.8925,55.6355 65.005,55.232 65.005,54.734 C65.005,54.188 64.8595,53.762 64.5685,53.456 C64.2775,53.15 63.862,52.997 63.322,52.997 L63.322,52.997 L61.396,52.997 C61.306,52.997 61.2415,53.015 61.2025,53.051 C61.1635,53.087 61.144,53.153 61.144,53.249 L61.144,53.249 L61.144,58.793 C61.144,58.889 61.1605,58.955 61.1935,58.991 C61.2265,59.027 61.288,59.045 61.378,59.045 Z M63.43,56.039 L61.63,56.039 L61.63,53.474 L63.43,53.474 C63.736,53.474 63.994,53.5745 64.204,53.7755 C64.414,53.9765 64.519,54.296 64.519,54.734 C64.519,54.89 64.501,55.0445 64.465,55.1975 C64.429,55.3505 64.369,55.49 64.285,55.616 C64.201,55.742 64.0885,55.844 63.9475,55.922 C63.8065,56 63.634,56.039 63.43,56.039 L63.43,56.039 Z M70.503,59 C70.653,59 70.728,58.916 70.728,58.748 C70.728,58.598 70.653,58.523 70.503,58.523 L70.503,58.523 L67.713,58.523 L67.713,56.048 L70.107,56.048 C70.179,56.048 70.233,56.0315 70.269,55.9985 C70.305,55.9655 70.323,55.904 70.323,55.814 C70.323,55.658 70.251,55.58 70.107,55.58 L70.107,55.58 L67.713,55.58 L67.713,53.474 L70.503,53.474 C70.653,53.474 70.728,53.399 70.728,53.249 C70.728,53.081 70.653,52.997 70.503,52.997 L70.503,52.997 L67.479,52.997 C67.389,52.997 67.326,53.015 67.29,53.051 C67.254,53.087 67.236,53.153 67.236,53.249 L67.236,53.249 L67.236,58.748 C67.236,58.844 67.254,58.91 67.29,58.946 C67.326,58.982 67.389,59 67.479,59 L67.479,59 L70.503,59 Z M75.389,59 C75.593,59 75.7835,58.964 75.9605,58.892 C76.1375,58.82 76.292,58.712 76.424,58.568 C76.556,58.424 76.661,58.2425 76.739,58.0235 C76.817,57.8045 76.856,57.551 76.856,57.263 L76.856,57.263 L76.856,54.662 C76.856,54.074 76.7255,53.6495 76.4645,53.3885 C76.2035,53.1275 75.845,52.997 75.389,52.997 L75.389,52.997 L72.995,52.997 C72.905,52.997 72.842,53.015 72.806,53.051 C72.77,53.087 72.752,53.153 72.752,53.249 L72.752,53.249 L72.752,58.748 C72.752,58.844 72.77,58.91 72.806,58.946 C72.842,58.982 72.905,59 72.995,59 L72.995,59 L75.389,59 Z M75.227,58.523 L73.229,58.523 L73.229,53.465 L75.326,53.465 C75.668,53.465 75.929,53.5685 76.109,53.7755 C76.289,53.9825 76.379,54.269 76.379,54.635 L76.379,54.635 L76.379,57.299 C76.379,57.665 76.289,57.9605 76.109,58.1855 C75.929,58.4105 75.635,58.523 75.227,58.523 L75.227,58.523 Z M79.699,59.045 C79.789,59.045 79.8505,59.0285 79.8835,58.9955 C79.9165,58.9625 79.933,58.895 79.933,58.793 L79.933,58.793 L79.933,53.213 C79.933,53.111 79.9165,53.0435 79.8835,53.0105 C79.8505,52.9775 79.789,52.961 79.699,52.961 C79.609,52.961 79.546,52.979 79.51,53.015 C79.474,53.051 79.456,53.117 79.456,53.213 L79.456,53.213 L79.456,58.793 C79.456,58.889 79.474,58.955 79.51,58.991 C79.546,59.027 79.609,59.045 79.699,59.045 Z M84.171,59.045 C84.267,59.045 84.3315,59.027 84.3645,58.991 C84.3975,58.955 84.414,58.889 84.414,58.793 L84.414,58.793 L84.414,53.474 L85.989,53.474 C86.139,53.474 86.214,53.399 86.214,53.249 C86.214,53.081 86.139,52.997 85.989,52.997 L85.989,52.997 L82.362,52.997 C82.212,52.997 82.137,53.081 82.137,53.249 C82.137,53.399 82.212,53.474 82.362,53.474 L82.362,53.474 L83.937,53.474 L83.937,58.793 C83.937,58.895 83.9535,58.9625 83.9865,58.9955 C84.0195,59.0285 84.081,59.045 84.171,59.045 Z M89.309,52.664 C89.339,52.664 89.378,52.658 89.426,52.646 L89.426,52.646 L90.542,52.196 C90.572,52.184 90.6005,52.1555 90.6275,52.1105 C90.6545,52.0655 90.668,52.016 90.668,51.962 C90.668,51.878 90.6395,51.8075 90.5825,51.7505 C90.5255,51.6935 90.461,51.665 90.389,51.665 C90.371,51.665 90.344,51.671 90.308,51.683 L90.308,51.683 L89.246,52.304 C89.21,52.322 89.177,52.3445 89.147,52.3715 C89.117,52.3985 89.102,52.433 89.102,52.475 C89.102,52.541 89.126,52.589 89.174,52.619 C89.222,52.649 89.267,52.664 89.309,52.664 Z M87.671,59.036 C87.761,59.036 87.824,58.985 87.86,58.883 L87.86,58.883 L88.283,57.596 L90.839,57.596 L91.271,58.883 C91.289,58.931 91.3205,58.967 91.3655,58.991 C91.4105,59.015 91.457,59.027 91.505,59.027 C91.607,59.027 91.6775,59.0015 91.7165,58.9505 C91.7555,58.8995 91.775,58.856 91.775,58.82 C91.775,58.802 91.769,58.769 91.757,58.721 L91.757,58.721 L89.975,53.258 C89.939,53.15 89.9045,53.0795 89.8715,53.0465 C89.8385,53.0135 89.783,52.997 89.705,52.997 L89.705,52.997 L89.444,52.997 C89.36,52.997 89.3015,53.0135 89.2685,53.0465 C89.2355,53.0795 89.201,53.15 89.165,53.258 L89.165,53.258 L87.383,58.721 C87.377,58.739 87.3725,58.7555 87.3695,58.7705 C87.3665,58.7855 87.365,58.802 87.365,58.82 C87.365,58.862 87.3875,58.9085 87.4325,58.9595 C87.4775,59.0105 87.557,59.036 87.671,59.036 Z M90.686,57.11 L88.454,57.11 L89.561,53.546 L90.686,57.11 Z M97.093,59 C97.243,59 97.318,58.916 97.318,58.748 C97.318,58.598 97.243,58.523 97.093,58.523 L97.093,58.523 L94.312,58.523 L94.312,53.204 C94.312,53.102 94.2955,53.0345 94.2625,53.0015 C94.2295,52.9685 94.168,52.952 94.078,52.952 C93.988,52.952 93.925,52.97 93.889,53.006 C93.853,53.042 93.835,53.108 93.835,53.204 L93.835,53.204 L93.835,58.748 C93.835,58.844 93.853,58.91 93.889,58.946 C93.925,58.982 93.988,59 94.078,59 L94.078,59 L97.093,59 Z M100.8,52.664 C100.83,52.664 100.869,52.658 100.917,52.646 L100.917,52.646 L102.033,52.196 C102.063,52.184 102.0915,52.1555 102.1185,52.1105 C102.1455,52.0655 102.159,52.016 102.159,51.962 C102.159,51.878 102.1305,51.8075 102.0735,51.7505 C102.0165,51.6935 101.952,51.665 101.88,51.665 C101.862,51.665 101.835,51.671 101.799,51.683 L101.799,51.683 L100.737,52.304 C100.701,52.322 100.668,52.3445 100.638,52.3715 C100.608,52.3985 100.593,52.433 100.593,52.475 C100.593,52.541 100.617,52.589 100.665,52.619 C100.713,52.649 100.758,52.664 100.8,52.664 Z M101.619,59 C101.835,59 102.0375,58.964 102.2265,58.892 C102.4155,58.82 102.5805,58.712 102.7215,58.568 C102.8625,58.424 102.975,58.2425 103.059,58.0235 C103.143,57.8045 103.185,57.551 103.185,57.263 L103.185,57.263 L103.185,54.734 C103.185,54.446 103.146,54.1925 103.068,53.9735 C102.99,53.7545 102.882,53.573 102.744,53.429 C102.606,53.285 102.441,53.177 102.249,53.105 C102.057,53.033 101.844,52.997 101.61,52.997 L101.61,52.997 L100.836,52.997 C100.62,52.997 100.4175,53.033 100.2285,53.105 C100.0395,53.177 99.873,53.285 99.729,53.429 C99.585,53.573 99.471,53.7545 99.387,53.9735 C99.303,54.1925 99.261,54.446 99.261,54.734 L99.261,54.734 L99.261,57.299 C99.261,57.587 99.303,57.839 99.387,58.055 C99.471,58.271 99.5835,58.448 99.7245,58.586 C99.8655,58.724 100.0305,58.8275 100.2195,58.8965 C100.4085,58.9655 100.611,59 100.827,59 L100.827,59 L101.619,59 Z M101.565,58.523 L100.881,58.523 C100.527,58.523 100.248,58.4105 100.044,58.1855 C99.84,57.9605 99.738,57.665 99.738,57.299 L99.738,57.299 L99.738,54.698 C99.738,54.332 99.8385,54.0365 100.0395,53.8115 C100.2405,53.5865 100.521,53.474 100.881,53.474 L100.881,53.474 L101.565,53.474 C101.925,53.474 102.2055,53.5865 102.4065,53.8115 C102.6075,54.0365 102.708,54.332 102.708,54.698 L102.708,54.698 L102.708,57.299 C102.708,57.665 102.606,57.9605 102.402,58.1855 C102.198,58.4105 101.919,58.523 101.565,58.523 L101.565,58.523 Z M112.966,59.045 C113.056,59.045 113.119,59.027 113.155,58.991 C113.191,58.955 113.209,58.889 113.209,58.793 L113.209,58.793 L113.209,53.213 C113.209,53.117 113.191,53.051 113.155,53.015 C113.119,52.979 113.056,52.961 112.966,52.961 C112.876,52.961 112.8145,52.9775 112.7815,53.0105 C112.7485,53.0435 112.732,53.111 112.732,53.213 L112.732,53.213 L112.732,55.598 L109.852,55.598 L109.852,53.213 C109.852,53.111 109.8355,53.0435 109.8025,53.0105 C109.7695,52.9775 109.708,52.961 109.618,52.961 C109.528,52.961 109.465,52.979 109.429,53.015 C109.393,53.051 109.375,53.117 109.375,53.213 L109.375,53.213 L109.375,58.793 C109.375,58.889 109.393,58.955 109.429,58.991 C109.465,59.027 109.528,59.045 109.618,59.045 C109.708,59.045 109.7695,59.0285 109.8025,58.9955 C109.8355,58.9625 109.852,58.895 109.852,58.793 L109.852,58.793 L109.852,56.03 L112.732,56.03 L112.732,58.793 C112.732,58.895 112.7485,58.9625 112.7815,58.9955 C112.8145,59.0285 112.876,59.045 112.966,59.045 Z M115.593,59.036 C115.683,59.036 115.746,58.985 115.782,58.883 L115.782,58.883 L116.205,57.596 L118.761,57.596 L119.193,58.883 C119.211,58.931 119.2425,58.967 119.2875,58.991 C119.3325,59.015 119.379,59.027 119.427,59.027 C119.529,59.027 119.5995,59.0015 119.6385,58.9505 C119.6775,58.8995 119.697,58.856 119.697,58.82 C119.697,58.802 119.691,58.769 119.679,58.721 L119.679,58.721 L117.897,53.258 C117.861,53.15 117.8265,53.0795 117.7935,53.0465 C117.7605,53.0135 117.705,52.997 117.627,52.997 L117.627,52.997 L117.366,52.997 C117.282,52.997 117.2235,53.0135 117.1905,53.0465 C117.1575,53.0795 117.123,53.15 117.087,53.258 L117.087,53.258 L115.305,58.721 C115.299,58.739 115.2945,58.7555 115.2915,58.7705 C115.2885,58.7855 115.287,58.802 115.287,58.82 C115.287,58.862 115.3095,58.9085 115.3545,58.9595 C115.3995,59.0105 115.479,59.036 115.593,59.036 Z M118.608,57.11 L116.376,57.11 L117.483,53.546 L118.608,57.11 Z M122.945,59.045 C123.041,59.045 123.1055,59.027 123.1385,58.991 C123.1715,58.955 123.188,58.889 123.188,58.793 L123.188,58.793 L123.188,53.474 L124.763,53.474 C124.913,53.474 124.988,53.399 124.988,53.249 C124.988,53.081 124.913,52.997 124.763,52.997 L124.763,52.997 L121.136,52.997 C120.986,52.997 120.911,53.081 120.911,53.249 C120.911,53.399 120.986,53.474 121.136,53.474 L121.136,53.474 L122.711,53.474 L122.711,58.793 C122.711,58.895 122.7275,58.9625 122.7605,58.9955 C122.7935,59.0285 122.855,59.045 122.945,59.045 Z M128.38,52.664 C128.41,52.664 128.449,52.658 128.497,52.646 L128.497,52.646 L129.613,52.196 C129.643,52.184 129.6715,52.1555 129.6985,52.1105 C129.7255,52.0655 129.739,52.016 129.739,51.962 C129.739,51.878 129.7105,51.8075 129.6535,51.7505 C129.5965,51.6935 129.532,51.665 129.46,51.665 C129.442,51.665 129.415,51.671 129.379,51.683 L129.379,51.683 L128.317,52.304 C128.281,52.322 128.248,52.3445 128.218,52.3715 C128.188,52.3985 128.173,52.433 128.173,52.475 C128.173,52.541 128.197,52.589 128.245,52.619 C128.293,52.649 128.338,52.664 128.38,52.664 Z M129.199,59 C129.415,59 129.6175,58.964 129.8065,58.892 C129.9955,58.82 130.1605,58.712 130.3015,58.568 C130.4425,58.424 130.555,58.2425 130.639,58.0235 C130.723,57.8045 130.765,57.551 130.765,57.263 L130.765,57.263 L130.765,54.734 C130.765,54.446 130.726,54.1925 130.648,53.9735 C130.57,53.7545 130.462,53.573 130.324,53.429 C130.186,53.285 130.021,53.177 129.829,53.105 C129.637,53.033 129.424,52.997 129.19,52.997 L129.19,52.997 L128.416,52.997 C128.2,52.997 127.9975,53.033 127.8085,53.105 C127.6195,53.177 127.453,53.285 127.309,53.429 C127.165,53.573 127.051,53.7545 126.967,53.9735 C126.883,54.1925 126.841,54.446 126.841,54.734 L126.841,54.734 L126.841,57.299 C126.841,57.587 126.883,57.839 126.967,58.055 C127.051,58.271 127.1635,58.448 127.3045,58.586 C127.4455,58.724 127.6105,58.8275 127.7995,58.8965 C127.9885,58.9655 128.191,59 128.407,59 L128.407,59 L129.199,59 Z M129.145,58.523 L128.461,58.523 C128.107,58.523 127.828,58.4105 127.624,58.1855 C127.42,57.9605 127.318,57.665 127.318,57.299 L127.318,57.299 L127.318,54.698 C127.318,54.332 127.4185,54.0365 127.6195,53.8115 C127.8205,53.5865 128.101,53.474 128.461,53.474 L128.461,53.474 L129.145,53.474 C129.505,53.474 129.7855,53.5865 129.9865,53.8115 C130.1875,54.0365 130.288,54.332 130.288,54.698 L130.288,54.698 L130.288,57.299 C130.288,57.665 130.186,57.9605 129.982,58.1855 C129.778,58.4105 129.499,58.523 129.145,58.523 L129.145,58.523 Z M135.417,59 C135.645,59 135.846,58.958 136.02,58.874 C136.194,58.79 136.341,58.6775 136.461,58.5365 C136.581,58.3955 136.6725,58.232 136.7355,58.046 C136.7985,57.86 136.83,57.665 136.83,57.461 C136.83,57.221 136.7895,57.0185 136.7085,56.8535 C136.6275,56.6885 136.521,56.5475 136.389,56.4305 C136.257,56.3135 136.1055,56.213 135.9345,56.129 C135.7635,56.045 135.591,55.967 135.417,55.895 L135.417,55.895 L134.202,55.391 C133.95,55.289 133.761,55.169 133.635,55.031 C133.509,54.893 133.446,54.695 133.446,54.437 C133.446,54.119 133.5375,53.8805 133.7205,53.7215 C133.9035,53.5625 134.121,53.483 134.373,53.483 L134.373,53.483 L136.335,53.483 C136.365,53.483 136.3995,53.468 136.4385,53.438 C136.4775,53.408 136.497,53.348 136.497,53.258 C136.497,53.168 136.476,53.1035 136.434,53.0645 C136.392,53.0255 136.359,53.006 136.335,53.006 L136.335,53.006 L134.382,53.006 C134.154,53.006 133.9515,53.0435 133.7745,53.1185 C133.5975,53.1935 133.449,53.2955 133.329,53.4245 C133.209,53.5535 133.1175,53.7065 133.0545,53.8835 C132.9915,54.0605 132.96,54.248 132.96,54.446 C132.96,54.674 132.9915,54.8645 133.0545,55.0175 C133.1175,55.1705 133.2045,55.301 133.3155,55.409 C133.4265,55.517 133.5555,55.61 133.7025,55.688 C133.8495,55.766 134.007,55.841 134.175,55.913 L134.175,55.913 L135.444,56.453 C135.732,56.573 135.951,56.7125 136.101,56.8715 C136.251,57.0305 136.326,57.242 136.326,57.506 C136.326,57.674 136.3005,57.821 136.2495,57.947 C136.1985,58.073 136.131,58.1795 136.047,58.2665 C135.963,58.3535 135.8655,58.418 135.7545,58.46 C135.6435,58.502 135.525,58.523 135.399,58.523 L135.399,58.523 L133.275,58.523 C133.251,58.523 133.218,58.541 133.176,58.577 C133.134,58.613 133.113,58.676 133.113,58.766 C133.113,58.856 133.1325,58.9175 133.1715,58.9505 C133.2105,58.9835 133.245,59 133.275,59 L133.275,59 L135.417,59 Z M140.717,52.664 C140.747,52.664 140.786,52.658 140.834,52.646 L140.834,52.646 L141.95,52.196 C141.98,52.184 142.0085,52.1555 142.0355,52.1105 C142.0625,52.0655 142.076,52.016 142.076,51.962 C142.076,51.878 142.0475,51.8075 141.9905,51.7505 C141.9335,51.6935 141.869,51.665 141.797,51.665 C141.779,51.665 141.752,51.671 141.716,51.683 L141.716,51.683 L140.654,52.304 C140.618,52.322 140.585,52.3445 140.555,52.3715 C140.525,52.3985 140.51,52.433 140.51,52.475 C140.51,52.541 140.534,52.589 140.582,52.619 C140.63,52.649 140.675,52.664 140.717,52.664 Z M139.079,59.036 C139.169,59.036 139.232,58.985 139.268,58.883 L139.268,58.883 L139.691,57.596 L142.247,57.596 L142.679,58.883 C142.697,58.931 142.7285,58.967 142.7735,58.991 C142.8185,59.015 142.865,59.027 142.913,59.027 C143.015,59.027 143.0855,59.0015 143.1245,58.9505 C143.1635,58.8995 143.183,58.856 143.183,58.82 C143.183,58.802 143.177,58.769 143.165,58.721 L143.165,58.721 L141.383,53.258 C141.347,53.15 141.3125,53.0795 141.2795,53.0465 C141.2465,53.0135 141.191,52.997 141.113,52.997 L141.113,52.997 L140.852,52.997 C140.768,52.997 140.7095,53.0135 140.6765,53.0465 C140.6435,53.0795 140.609,53.15 140.573,53.258 L140.573,53.258 L138.791,58.721 C138.785,58.739 138.7805,58.7555 138.7775,58.7705 C138.7745,58.7855 138.773,58.802 138.773,58.82 C138.773,58.862 138.7955,58.9085 138.8405,58.9595 C138.8855,59.0105 138.965,59.036 139.079,59.036 Z M142.094,57.11 L139.862,57.11 L140.969,53.546 L142.094,57.11 Z M148.852,59 C148.936,59 148.9945,58.982 149.0275,58.946 C149.0605,58.91 149.077,58.844 149.077,58.748 L149.077,58.748 L149.077,55.805 C149.077,55.703 149.0605,55.6385 149.0275,55.6115 C148.9945,55.5845 148.93,55.571 148.834,55.571 L148.834,55.571 L147.538,55.571 C147.394,55.571 147.322,55.649 147.322,55.805 C147.322,55.973 147.394,56.057 147.538,56.057 L147.538,56.057 L148.6,56.057 L148.6,58.523 L146.674,58.523 C146.332,58.523 146.0725,58.4105 145.8955,58.1855 C145.7185,57.9605 145.63,57.665 145.63,57.299 L145.63,57.299 L145.63,54.707 C145.63,54.341 145.726,54.044 145.918,53.816 C146.11,53.588 146.377,53.474 146.719,53.474 L146.719,53.474 L148.69,53.474 C148.84,53.474 148.915,53.399 148.915,53.249 C148.915,53.081 148.84,52.997 148.69,52.997 L148.69,52.997 L146.62,52.997 C146.434,52.997 146.254,53.033 146.08,53.105 C145.906,53.177 145.75,53.285 145.612,53.429 C145.474,53.573 145.363,53.753 145.279,53.969 C145.195,54.185 145.153,54.44 145.153,54.734 L145.153,54.734 L145.153,57.263 C145.153,57.551 145.189,57.8045 145.261,58.0235 C145.333,58.2425 145.435,58.424 145.567,58.568 C145.699,58.712 145.8535,58.82 146.0305,58.892 C146.2075,58.964 146.404,59 146.62,59 L146.62,59 L148.852,59 Z" id="NEMZETIAKKREDITÁLÓHATÓSÁG" fill="#000000" fill-rule="nonzero"></path>
            <g id="Group-22" transform="translate(0.000000, 0.000000)">
                <g id="Group-23" transform="translate(0.000000, -0.000000)">
                    <polygon id="Rectangle" fill="#E84E0E" points="0 2.49800181e-15 24.608289 23.5 24.608289 2.49800181e-15 44 -2.07056594e-14 44 44 0 44"></polygon>
                    <polygon id="Rectangle" fill="#E21A13" points="24.608289 23.5 44 44 24.608289 44"></polygon>
                </g>
                <g id="Group-24" transform="translate(48.000000, -0.000000)">
                    <polygon id="Rectangle-Copy-8" fill="#C4C4C4" points="26.5 6.25277607e-13 53 44 31.0682935 44 26.5 36 21.5857576 44 0 44"></polygon>
                    <polygon id="Rectangle" fill="#999997" points="26.5 -1.42108547e-14 37.4102903 18.1073501 26.5 36 15.5967948 18.1073501"></polygon>
                </g>
                <g id="Group-25" transform="translate(105.000000, -0.000000)">
                    <path d="M44,44 L28,44 L28,32 L16,32 L16,44 L0,44 L0,0 L16,0 L16,15 L28,15 L28,0 L44,0 L44,44 Z" id="Rectangle-Copy-15" fill="#93C01D"></path>
                    <rect id="Rectangle-Copy-14" fill="#36A836" x="0" y="15" width="16" height="17"></rect>
                    <rect id="Rectangle-Copy-17" fill="#36A836" x="28" y="15" width="16" height="17"></rect>
                </g>
            </g>
        </g>
    </g>
</svg>